<?xml version="1.0" standalone="no"?><!DOCTYPE svg PUBLIC "-//W3C//DTD SVG 1.1//EN" "http://www.w3.org/Graphics/SVG/1.1/DTD/svg11.dtd"> <svg t="1627124993809" class="icon" viewBox="0 0 1024 1024" version="1.1" xmlns="http://www.w3.org/2000/svg" p-id="1545" xmlns:xlink="http://www.w3.org/1999/xlink" width="200" height="200"><defs><style type="text/css">@font-face { font-family: feedback-iconfont; src: url("//at.alicdn.com/t/font_1031158_1uhr8ri0pk5.eot?#iefix") format("embedded-opentype"), url("//at.alicdn.com/t/font_1031158_1uhr8ri0pk5.woff2") format("woff2"), url("//at.alicdn.com/t/font_1031158_1uhr8ri0pk5.woff") format("woff"), url("//at.alicdn.com/t/font_1031158_1uhr8ri0pk5.ttf") format("truetype"), url("//at.alicdn.com/t/font_1031158_1uhr8ri0pk5.svg#iconfont") format("svg"); }
</style></defs><path d="M210.946277 511.998946a301.175851 301.175851 0 0 0 97.882151 221.665426L512.122127 210.823095A301.175851 301.175851 0 0 0 210.946277 511.998946zM512.122127 632.469286l-193.354896 110.531537a301.175851 301.175851 0 0 0 386.709792 0zM512.122127 210.823095l203.293699 522.841277A301.175851 301.175851 0 0 0 512.122127 210.823095z" fill="#0b27ea" p-id="1546"></path><path d="M205.223935 170.465531a30.117585 30.117585 0 0 0 19.275255-6.927044c8.131748-6.625869 16.263496-12.950562 24.69642-18.974079A30.117585 30.117585 0 1 0 213.958035 95.77392c-9.336451 6.625869-18.672903 13.854089-27.708178 21.383486a30.117585 30.117585 0 0 0 18.974078 53.308125z" fill="#fff" p-id="1547"></path><path d="M512.122127 0a511.998946 511.998946 0 0 0-143.660881 20.479958 30.117585 30.117585 0 0 0 16.865848 57.825763A451.763776 451.763776 0 1 1 60.358351 511.998946a445.740259 445.740259 0 0 1 36.141102-177.0914 30.117585 30.117585 0 0 0-15.96232-39.755212 30.117585 30.117585 0 0 0-39.454036 15.96232A511.998946 511.998946 0 1 0 512.122127 0z" fill="#fff" p-id="1548" data-spm-anchor-id="a313x.7781069.0.i5" class="selected"></path><path d="M316.357824 779.141925l195.764303-112.037416 195.764303 112.037416a30.117585 30.117585 0 0 0 15.058792 3.915286 30.117585 30.117585 0 0 0 28.009355-40.959915l-210.823096-542.116531a30.117585 30.117585 0 0 0-56.018708 0l-210.823095 542.116531a30.117585 30.117585 0 0 0 43.068146 37.044629zM512.122127 293.94763l150.587925 391.528606-136.733836-78.305721a30.117585 30.117585 0 0 0-30.117585 0L361.534202 684.572708z" fill="#fff" p-id="1549"></path></svg>
